<svg width="1440" height="350" viewBox="0 0 1440 350" fill="none" xmlns="http://www.w3.org/2000/svg">
<rect width="1440" height="350" fill="#F1F6FB"/>
<path d="M316.609 138.75V207H302.594V138.75H316.609ZM337.609 138.75V149.766H281.922V138.75H337.609ZM345.625 138.75H371.078C376.297 138.75 380.781 139.531 384.531 141.094C388.312 142.656 391.219 144.969 393.25 148.031C395.281 151.094 396.297 154.859 396.297 159.328C396.297 162.984 395.672 166.125 394.422 168.75C393.203 171.344 391.469 173.516 389.219 175.266C387 176.984 384.391 178.359 381.391 179.391L376.938 181.734H354.812L354.719 170.766H371.172C373.641 170.766 375.688 170.328 377.312 169.453C378.938 168.578 380.156 167.359 380.969 165.797C381.812 164.234 382.234 162.422 382.234 160.359C382.234 158.172 381.828 156.281 381.016 154.688C380.203 153.094 378.969 151.875 377.312 151.031C375.656 150.188 373.578 149.766 371.078 149.766H359.688V207H345.625V138.75ZM383.781 207L368.219 176.578L383.078 176.484L398.828 206.344V207H383.781ZM434.875 150.422L416.312 207H401.359L426.719 138.75H436.234L434.875 150.422ZM450.297 207L431.688 150.422L430.188 138.75H439.797L465.297 207H450.297ZM449.453 181.594V192.609H413.406V181.594H449.453ZM492.391 192.75L508.469 138.75H524.125L500.359 207H490.047L492.391 192.75ZM477.578 138.75L493.609 192.75L496.047 207H485.641L462.016 138.75H477.578ZM576.297 196.031V207H539.969V196.031H576.297ZM544.562 138.75V207H530.5V138.75H544.562ZM571.562 166.547V177.234H539.969V166.547H571.562ZM576.25 138.75V149.766H539.969V138.75H576.25ZM628.375 196.031V207H594.016V196.031H628.375ZM598.562 138.75V207H584.5V138.75H598.562ZM671.922 138.75L684.766 162.562L697.609 138.75H713.688L693.859 172.594L714.203 207H697.984L684.766 182.719L671.547 207H655.234L675.625 172.594L655.75 138.75H671.922ZM747.859 182.672H730.469V171.703H747.859C750.547 171.703 752.734 171.266 754.422 170.391C756.109 169.484 757.344 168.234 758.125 166.641C758.906 165.047 759.297 163.25 759.297 161.25C759.297 159.219 758.906 157.328 758.125 155.578C757.344 153.828 756.109 152.422 754.422 151.359C752.734 150.297 750.547 149.766 747.859 149.766H735.344V207H721.281V138.75H747.859C753.203 138.75 757.781 139.719 761.594 141.656C765.438 143.562 768.375 146.203 770.406 149.578C772.438 152.953 773.453 156.812 773.453 161.156C773.453 165.562 772.438 169.375 770.406 172.594C768.375 175.812 765.438 178.297 761.594 180.047C757.781 181.797 753.203 182.672 747.859 182.672ZM828.953 196.031V207H792.625V196.031H828.953ZM797.219 138.75V207H783.156V138.75H797.219ZM824.219 166.547V177.234H792.625V166.547H824.219ZM828.906 138.75V149.766H792.625V138.75H828.906ZM837.156 138.75H862.609C867.828 138.75 872.312 139.531 876.062 141.094C879.844 142.656 882.75 144.969 884.781 148.031C886.812 151.094 887.828 154.859 887.828 159.328C887.828 162.984 887.203 166.125 885.953 168.75C884.734 171.344 883 173.516 880.75 175.266C878.531 176.984 875.922 178.359 872.922 179.391L868.469 181.734H846.344L846.25 170.766H862.703C865.172 170.766 867.219 170.328 868.844 169.453C870.469 168.578 871.688 167.359 872.5 165.797C873.344 164.234 873.766 162.422 873.766 160.359C873.766 158.172 873.359 156.281 872.547 154.688C871.734 153.094 870.5 151.875 868.844 151.031C867.188 150.188 865.109 149.766 862.609 149.766H851.219V207H837.156V138.75ZM875.312 207L859.75 176.578L874.609 176.484L890.359 206.344V207H875.312ZM913.609 138.75V207H899.594V138.75H913.609ZM972.578 196.031V207H936.25V196.031H972.578ZM940.844 138.75V207H926.781V138.75H940.844ZM967.844 166.547V177.234H936.25V166.547H967.844ZM972.531 138.75V149.766H936.25V138.75H972.531ZM1036.33 138.75V207H1022.27L994.844 161.25V207H980.781V138.75H994.844L1022.31 184.547V138.75H1036.33ZM1088.12 184.359H1102.14C1101.86 188.953 1100.59 193.031 1098.34 196.594C1096.12 200.156 1093.02 202.938 1089.02 204.938C1085.05 206.938 1080.27 207.938 1074.67 207.938C1070.3 207.938 1066.38 207.188 1062.91 205.688C1059.44 204.156 1056.47 201.969 1054 199.125C1051.56 196.281 1049.7 192.844 1048.42 188.812C1047.14 184.781 1046.5 180.266 1046.5 175.266V170.531C1046.5 165.531 1047.16 161.016 1048.47 156.984C1049.81 152.922 1051.72 149.469 1054.19 146.625C1056.69 143.781 1059.67 141.594 1063.14 140.062C1066.61 138.531 1070.48 137.766 1074.77 137.766C1080.45 137.766 1085.25 138.797 1089.16 140.859C1093.09 142.922 1096.14 145.766 1098.3 149.391C1100.48 153.016 1101.8 157.141 1102.23 161.766H1088.17C1088.02 159.016 1087.47 156.688 1086.53 154.781C1085.59 152.844 1084.17 151.391 1082.27 150.422C1080.39 149.422 1077.89 148.922 1074.77 148.922C1072.42 148.922 1070.38 149.359 1068.62 150.234C1066.88 151.109 1065.41 152.438 1064.22 154.219C1063.03 156 1062.14 158.25 1061.55 160.969C1060.98 163.656 1060.7 166.812 1060.7 170.438V175.266C1060.7 178.797 1060.97 181.906 1061.5 184.594C1062.03 187.25 1062.84 189.5 1063.94 191.344C1065.06 193.156 1066.5 194.531 1068.25 195.469C1070.03 196.375 1072.17 196.828 1074.67 196.828C1077.61 196.828 1080.03 196.359 1081.94 195.422C1083.84 194.484 1085.3 193.094 1086.3 191.25C1087.33 189.406 1087.94 187.109 1088.12 184.359ZM1157.17 196.031V207H1120.84V196.031H1157.17ZM1125.44 138.75V207H1111.38V138.75H1125.44ZM1152.44 166.547V177.234H1120.84V166.547H1152.44ZM1157.12 138.75V149.766H1120.84V138.75H1157.12Z" fill="#F47C35" fill-opacity="0.1"/>
</svg>
